<?xml version="1.0" encoding="utf-8"?>
<!-- Generator: Adobe Illustrator 23.1.1, SVG Export Plug-In . SVG Version: 6.00 Build 0)  -->
<svg version="1.1" id="Layer_1" xmlns="http://www.w3.org/2000/svg" xmlns:xlink="http://www.w3.org/1999/xlink" x="0px" y="0px"
	 viewBox="0 0 46.7 46.7" style="enable-background:new 0 0 46.7 46.7;" xml:space="preserve">
<style type="text/css">
	.st0{fill:#FFC969;}
	.st1{fill:#315F7C;}
</style>
<path class="st0" d="M23.4,17.6c-3.2,0-5.7,2.6-5.7,5.7c0,3.2,2.6,5.7,5.7,5.7c3.2,0,5.7-2.6,5.7-5.7C29.1,20.2,26.5,17.6,23.4,17.6
	"/>
<path class="st1" d="M44.8,14.2c-0.9,1.7-2.6,2.9-4.7,3.1c0.7,1.9,1.1,3.9,1.1,6c0,9.9-8,17.9-17.9,17.9c-9.9,0-17.9-8-17.9-17.9
	c0-9.9,8-17.9,17.9-17.9c4.2,0,8.1,1.5,11.2,3.9c0.8-1.8,2.4-3.1,4.4-3.4c-4.1-3.7-9.6-6-15.6-6C10.5,0,0,10.5,0,23.4
	c0,12.9,10.5,23.4,23.4,23.4c12.9,0,23.4-10.5,23.4-23.4C46.7,20.1,46,17,44.8,14.2"/>
<path class="st1" d="M37.9,3.1c-3.2,0-5.7,2.6-5.7,5.7c0,3.2,2.6,5.7,5.7,5.7c3.2,0,5.7-2.6,5.7-5.7C43.6,5.6,41.1,3.1,37.9,3.1"/>
</svg>
