<?xml version="1.0" encoding="utf-8"?>
<!-- Generator: Adobe Illustrator 23.1.1, SVG Export Plug-In . SVG Version: 6.00 Build 0)  -->
<svg version="1.1" id="Layer_1" xmlns="http://www.w3.org/2000/svg" xmlns:xlink="http://www.w3.org/1999/xlink" x="0px" y="0px"
	 viewBox="0 0 51.4 51.4" style="enable-background:new 0 0 51.4 51.4;" xml:space="preserve">
<style type="text/css">
	.st0{fill:#FFFFFF;}
	.st1{fill:#FFC969;}
	.st2{opacity:0.5;}
	.st3{clip-path:url(#SVGID_2_);}
</style>
<path class="st0" d="M25.7,51.4C11.5,51.4,0,39.8,0,25.7C0,11.5,11.5,0,25.7,0c14.2,0,25.7,11.5,25.7,25.7
	C51.4,39.8,39.8,51.4,25.7,51.4 M25.7,6C14.8,6,6,14.8,6,25.7c0,10.8,8.8,19.7,19.7,19.7c10.8,0,19.7-8.8,19.7-19.7
	C45.4,14.8,36.5,6,25.7,6"/>
<path class="st1" d="M25.7,19.4c-3.5,0-6.3,2.8-6.3,6.3c0,3.5,2.8,6.3,6.3,6.3c3.5,0,6.3-2.8,6.3-6.3C32,22.2,29.2,19.4,25.7,19.4"
	/>
<g class="st2">
	<defs>
		<rect id="SVGID_1_" x="36.7" y="4.9" class="st2" width="12.6" height="12.6"/>
	</defs>
	<clipPath id="SVGID_2_">
		<use xlink:href="#SVGID_1_"  style="overflow:visible;"/>
	</clipPath>
	<path class="st3" d="M43,4.9c-3.5,0-6.3,2.8-6.3,6.3c0,3.5,2.8,6.3,6.3,6.3c3.5,0,6.3-2.8,6.3-6.3C49.3,7.7,46.5,4.9,43,4.9"/>
</g>
<path class="st0" d="M41.7,3.4c-3.5,0-6.3,2.8-6.3,6.3c0,3.5,2.8,6.3,6.3,6.3c3.5,0,6.3-2.8,6.3-6.3C48,6.2,45.2,3.4,41.7,3.4"/>
</svg>
