<?xml version="1.0" encoding="utf-8"?>
<!-- Generator: Adobe Illustrator 23.1.1, SVG Export Plug-In . SVG Version: 6.00 Build 0)  -->
<svg version="1.1" id="Layer_1" xmlns="http://www.w3.org/2000/svg" xmlns:xlink="http://www.w3.org/1999/xlink" x="0px" y="0px"
	 viewBox="0 0 332.4 48.4" style="enable-background:new 0 0 332.4 48.4;" xml:space="preserve">
<style type="text/css">
	.st0{clip-path:url(#SVGID_2_);fill:#315F7C;}
	.st1{fill:#315F7C;}
	.st2{fill:#FFC969;}
	.st3{clip-path:url(#SVGID_4_);fill:#315F7C;}
	.st4{opacity:0.6;fill:#315F7C;}
	.st5{clip-path:url(#SVGID_6_);fill:#315F7C;}
	.st6{clip-path:url(#SVGID_8_);fill:#315F7C;}
	.st7{clip-path:url(#SVGID_10_);fill:#315F7C;}
	.st8{clip-path:url(#SVGID_12_);fill:#315F7C;}
	.st9{clip-path:url(#SVGID_14_);fill:#315F7C;}
</style>
<g>
	<defs>
		<rect id="SVGID_1_" x="103.3" y="4.2" width="1" height="29.1"/>
	</defs>
	<clipPath id="SVGID_2_">
		<use xlink:href="#SVGID_1_"  style="overflow:visible;opacity:0.6;"/>
	</clipPath>
	<path class="st0" d="M103.8,33.2c-0.3,0-0.5-0.2-0.5-0.5V4.7c0-0.3,0.2-0.5,0.5-0.5s0.5,0.2,0.5,0.5v28.1
		C104.3,33,104.1,33.2,103.8,33.2"/>
</g>
<path class="st1" d="M105.3,32.7c0,0.8-0.7,1.5-1.5,1.5c-0.8,0-1.5-0.7-1.5-1.5c0-0.8,0.7-1.5,1.5-1.5
	C104.7,31.2,105.3,31.8,105.3,32.7"/>
<path class="st1" d="M105.3,4.8c0-0.8-0.7-1.5-1.5-1.5c-0.8,0-1.5,0.7-1.5,1.5c0,0.8,0.7,1.5,1.5,1.5C104.7,6.3,105.3,5.6,105.3,4.8
	"/>
<path class="st1" d="M103.8,45.9c-0.3,0-0.5-0.2-0.5-0.5v-9.8c0-0.3,0.2-0.5,0.5-0.5s0.5,0.2,0.5,0.5v9.8
	C104.3,45.7,104.1,45.9,103.8,45.9"/>
<path class="st1" d="M105.3,45.4c0,0.8-0.7,1.5-1.5,1.5c-0.8,0-1.5-0.7-1.5-1.5c0-0.8,0.7-1.5,1.5-1.5
	C104.7,43.9,105.3,44.5,105.3,45.4"/>
<path class="st1" d="M105.3,35.7c0-0.8-0.7-1.5-1.5-1.5c-0.8,0-1.5,0.7-1.5,1.5c0,0.8,0.7,1.5,1.5,1.5
	C104.7,37.2,105.3,36.5,105.3,35.7"/>
<path class="st1" d="M114.9,2h-14.2c-0.3,0-0.5-0.2-0.5-0.5s0.2-0.5,0.5-0.5h14.2c0.3,0,0.5,0.2,0.5,0.5S115.1,2,114.9,2"/>
<path class="st1" d="M100.8,3c-0.8,0-1.5-0.7-1.5-1.5c0-0.8,0.7-1.5,1.5-1.5c0.8,0,1.5,0.7,1.5,1.5C102.3,2.3,101.6,3,100.8,3"/>
<path class="st1" d="M114.8,3c0.8,0,1.5-0.7,1.5-1.5c0-0.8-0.7-1.5-1.5-1.5s-1.5,0.7-1.5,1.5C113.3,2.3,114,3,114.8,3"/>
<path class="st1" d="M97.8,2h-5.1c-0.3,0-0.5-0.2-0.5-0.5S92.5,1,92.8,1h5.1c0.3,0,0.5,0.2,0.5,0.5S98.1,2,97.8,2"/>
<path class="st1" d="M92.9,3c-0.8,0-1.5-0.7-1.5-1.5C91.4,0.7,92,0,92.9,0c0.8,0,1.5,0.7,1.5,1.5C94.4,2.3,93.7,3,92.9,3"/>
<path class="st2" d="M97.8,3c0.8,0,1.5-0.7,1.5-1.5c0-0.8-0.7-1.5-1.5-1.5c-0.8,0-1.5,0.7-1.5,1.5C96.3,2.3,96.9,3,97.8,3"/>
<g>
	<defs>
		<rect id="SVGID_3_" x="17.9" y="7" width="8.8" height="24.2"/>
	</defs>
	<clipPath id="SVGID_4_">
		<use xlink:href="#SVGID_3_"  style="overflow:visible;"/>
	</clipPath>
	<path class="st3" d="M26.2,31.2c-0.2,0-0.4-0.1-0.5-0.3L18,7.7C17.9,7.4,18,7.1,18.3,7c0.3-0.1,0.5,0.1,0.6,0.3l7.8,23.2
		c0.1,0.3-0.1,0.5-0.3,0.6C26.4,31.2,26.3,31.2,26.2,31.2"/>
</g>
<path class="st1" d="M27.6,30.2c0.3,0.8-0.2,1.6-0.9,1.9c-0.8,0.3-1.6-0.2-1.9-0.9c-0.3-0.8,0.2-1.6,0.9-1.9
	C26.5,29,27.4,29.4,27.6,30.2"/>
<path class="st1" d="M19.9,7.1c-0.3-0.8-1.1-1.2-1.9-0.9c-0.8,0.3-1.2,1.1-0.9,1.9c0.3,0.8,1.1,1.2,1.9,0.9
	C19.7,8.7,20.1,7.9,19.9,7.1"/>
<path class="st1" d="M31.2,46c-0.2,0-0.4-0.1-0.5-0.3l-4.1-12.1c-0.1-0.3,0.1-0.5,0.3-0.6c0.3-0.1,0.5,0.1,0.6,0.3l4.1,12.1
	c0.1,0.3-0.1,0.5-0.3,0.6C31.3,46,31.3,46,31.2,46"/>
<path class="st1" d="M32.6,45c0.3,0.8-0.2,1.6-0.9,1.9c-0.8,0.3-1.6-0.2-1.9-0.9c-0.3-0.8,0.2-1.6,0.9-1.9
	C31.5,43.7,32.4,44.2,32.6,45"/>
<path class="st1" d="M28.6,33c-0.3-0.8-1.1-1.2-1.9-0.9c-0.8,0.3-1.2,1.1-0.9,1.9c0.3,0.8,1.1,1.2,1.9,0.9
	C28.5,34.7,28.9,33.8,28.6,33"/>
<path class="st1" d="M13.1,12c-0.1,0-0.1,0-0.2,0c-0.3-0.1-0.4-0.4-0.3-0.6l2.8-8.3c0.1-0.3,0.4-0.4,0.6-0.3
	c0.3,0.1,0.4,0.4,0.3,0.6l-2.8,8.3C13.5,11.9,13.3,12,13.1,12"/>
<path class="st1" d="M14.5,12c-0.3,0.8-1.1,1.2-1.9,0.9c-0.8-0.3-1.2-1.1-0.9-1.9c0.3-0.8,1.1-1.2,1.9-0.9
	C14.4,10.3,14.8,11.2,14.5,12"/>
<path class="st1" d="M17.3,3.8c0.3-0.8-0.2-1.6-0.9-1.9c-0.8-0.3-1.6,0.2-1.9,0.9c-0.3,0.8,0.2,1.6,0.9,1.9
	C16.2,5.1,17,4.6,17.3,3.8"/>
<path class="st4" d="M1.5,46c-0.1,0-0.1,0-0.2,0c-0.3-0.1-0.4-0.4-0.3-0.6l10.7-31.3c0.1-0.3,0.4-0.4,0.6-0.3
	c0.3,0.1,0.4,0.4,0.3,0.6L2,45.7C1.9,45.9,1.7,46,1.5,46"/>
<path class="st2" d="M2.9,45.9c-0.3,0.8-1.1,1.2-1.9,0.9c-0.8-0.3-1.2-1.1-0.9-1.9C0.3,44.2,1.2,43.7,2,44
	C2.8,44.3,3.2,45.1,2.9,45.9"/>
<path class="st1" d="M13.5,14.8c0.3-0.8-0.2-1.6-0.9-1.9c-0.8-0.3-1.6,0.2-1.9,0.9c-0.3,0.8,0.2,1.6,0.9,1.9
	C12.4,16,13.3,15.6,13.5,14.8"/>
<path class="st1" d="M26.6,43.6H6.1c-0.3,0-0.5-0.2-0.5-0.5c0-0.3,0.2-0.5,0.5-0.5h20.6c0.3,0,0.5,0.2,0.5,0.5
	C27.1,43.3,26.9,43.6,26.6,43.6"/>
<path class="st1" d="M6.1,44.6c-0.8,0-1.5-0.7-1.5-1.5c0-0.8,0.7-1.5,1.5-1.5s1.5,0.7,1.5,1.5C7.6,43.9,7,44.6,6.1,44.6"/>
<path class="st1" d="M26.6,44.6c0.8,0,1.5-0.7,1.5-1.5c0-0.8-0.7-1.5-1.5-1.5c-0.8,0-1.5,0.7-1.5,1.5C25.1,43.9,25.7,44.6,26.6,44.6
	"/>
<path class="st4" d="M60.1,22.9c-0.1,0-0.2,0-0.2-0.1c-1.4-0.7-2.7-1.3-3.9-1.9l-0.8-0.4c-1.7-0.8-3.3-1.6-4.3-2.4
	c-1.1-0.9-1.8-1.7-2.2-2.8c-0.5-1.1-0.7-2.3-0.7-3.9c0-1.6,0.3-3,0.9-4.3c0.1-0.2,0.2-0.5,0.4-0.7c0.1-0.2,0.4-0.3,0.7-0.2
	c0.2,0.1,0.3,0.4,0.2,0.7c-0.1,0.2-0.2,0.4-0.3,0.6C49.3,8.7,49,10,49,11.5c0,1.5,0.2,2.6,0.6,3.5c0.4,0.9,1,1.7,2,2.4
	c0.9,0.8,2.5,1.5,4.1,2.3l0.8,0.4c1.2,0.6,2.5,1.2,3.9,1.9c0.2,0.1,0.3,0.4,0.2,0.7C60.5,22.8,60.3,22.9,60.1,22.9"/>
<path class="st2" d="M48.4,5.9c0.5-0.7,1.4-0.9,2.1-0.4c0.7,0.5,0.9,1.4,0.4,2.1c-0.5,0.7-1.4,0.9-2.1,0.4C48.2,7.5,48,6.6,48.4,5.9
	"/>
<path class="st1" d="M59.4,23.7c0.7,0.4,1.6,0.1,2-0.7c0.4-0.7,0.1-1.6-0.7-2c-0.7-0.4-1.6-0.1-2,0.7C58.3,22.5,58.6,23.4,59.4,23.7
	"/>
<path class="st1" d="M73.6,8.4c-0.1,0-0.2,0-0.3-0.1L73,8c-0.8-0.6-2-1.5-3.5-2.5c-1.6-1-3.2-1.9-4.7-2.5C63,2.4,61.3,2,59.9,2
	c-1.6,0-3,0.2-4.4,0.7c-1.3,0.4-2.5,1.1-3.5,1.9c-0.1,0.1-0.2,0.2-0.3,0.2c-0.2,0.2-0.5,0.2-0.7,0c-0.2-0.2-0.2-0.5,0-0.7
	c0.1-0.1,0.2-0.2,0.3-0.3c1.1-0.9,2.3-1.6,3.8-2.1c1.4-0.5,3-0.7,4.7-0.7c1.6,0,3.3,0.4,5.2,1.2c1.5,0.6,3.2,1.5,4.9,2.5
	c1.5,1,2.8,1.9,3.6,2.5l0.3,0.2C74.1,7.6,74.2,8,74,8.2C73.9,8.3,73.7,8.4,73.6,8.4"/>
<path class="st1" d="M74.5,6.7c0.6,0.5,0.7,1.5,0.2,2.1c-0.5,0.6-1.5,0.7-2.1,0.2c-0.6-0.5-0.7-1.5-0.2-2.1
	C72.9,6.2,73.8,6.1,74.5,6.7"/>
<path class="st1" d="M50.5,3.4c-0.6,0.6-0.6,1.6,0,2.1c0.6,0.6,1.6,0.6,2.1,0c0.6-0.6,0.6-1.6,0-2.1C52,2.7,51,2.8,50.5,3.4"/>
<g>
	<defs>
		<rect id="SVGID_5_" x="58" y="25.5" width="17.2" height="21.9"/>
	</defs>
	<clipPath id="SVGID_6_">
		<use xlink:href="#SVGID_5_"  style="overflow:visible;"/>
	</clipPath>
	<path class="st5" d="M63.3,47.4c-1.5,0-3.3-0.4-5.2-1.2l0.1-0.5l0.2-0.5l-0.2,0.5l0.2-0.4c1.9,0.7,3.5,1.1,4.9,1.1
		c1.6,0,3-0.2,4.4-0.7c1.3-0.4,2.5-1.1,3.5-1.9c1-0.8,1.7-1.8,2.3-3c0.5-1.2,0.8-2.5,0.8-3.9c0-1.5-0.2-2.6-0.6-3.5
		c-0.4-0.9-1-1.7-2-2.4c-0.9-0.8-2.5-1.5-4.1-2.3l-0.8-0.4c-1.2-0.6-2.5-1.2-3.9-1.9c-0.2-0.1-0.3-0.4-0.2-0.7
		c0.1-0.2,0.4-0.3,0.7-0.2c1.4,0.7,2.7,1.3,3.9,1.9l0.8,0.4c1.7,0.8,3.3,1.6,4.3,2.4c1.1,0.9,1.8,1.7,2.2,2.8
		c0.5,1.1,0.7,2.3,0.7,3.9c0,1.6-0.3,3-0.9,4.3c-0.6,1.3-1.4,2.4-2.5,3.3c-1.1,0.9-2.3,1.6-3.8,2.1C66.5,47.1,64.9,47.4,63.3,47.4"
		/>
</g>
<path class="st1" d="M57.6,47.1c-0.8-0.3-1.1-1.2-0.8-2c0.3-0.8,1.2-1.1,2-0.8c0.8,0.3,1.1,1.2,0.8,2C59.2,47.1,58.4,47.4,57.6,47.1
	"/>
<path class="st1" d="M63.8,24.6c-0.7-0.4-1.6-0.1-2,0.7c-0.4,0.7-0.1,1.6,0.7,2c0.7,0.4,1.6,0.1,2-0.7C64.8,25.9,64.5,25,63.8,24.6"
	/>
<path class="st1" d="M55.6,45c-0.1,0-0.2,0-0.2-0.1c-0.7-0.4-1.4-0.8-2.1-1.3c-1.5-1-2.8-1.9-3.6-2.5l-0.3-0.2
	c-0.2-0.2-0.3-0.5-0.1-0.7c0.2-0.2,0.5-0.2,0.7-0.1l0.3,0.2c0.8,0.6,2,1.5,3.5,2.5c0.7,0.4,1.4,0.9,2.1,1.2c0.2,0.1,0.3,0.4,0.2,0.7
	C55.9,44.9,55.7,45,55.6,45"/>
<path class="st1" d="M48.7,41.7c-0.6-0.5-0.7-1.5-0.2-2.1c0.5-0.6,1.5-0.7,2.1-0.2c0.6,0.5,0.7,1.5,0.2,2.1
	C50.3,42.1,49.3,42.2,48.7,41.7"/>
<path class="st1" d="M54.8,45.7c0.7,0.4,1.6,0.1,2-0.6c0.4-0.7,0.1-1.6-0.6-2c-0.7-0.4-1.6-0.1-2,0.6C53.8,44.4,54.1,45.3,54.8,45.7
	"/>
<path class="st4" d="M157,2h-17.9c-0.3,0-0.5-0.2-0.5-0.5s0.2-0.5,0.5-0.5H157c0.3,0,0.5,0.2,0.5,0.5S157.3,2,157,2"/>
<path class="st1" d="M139.2,3c-0.8,0-1.5-0.7-1.5-1.5c0-0.8,0.7-1.5,1.5-1.5c0.8,0,1.5,0.7,1.5,1.5C140.7,2.3,140,3,139.2,3"/>
<path class="st1" d="M157,3c0.8,0,1.5-0.7,1.5-1.5c0-0.8-0.7-1.5-1.5-1.5c-0.8,0-1.5,0.7-1.5,1.5C155.4,2.3,156.1,3,157,3"/>
<path class="st1" d="M157,47.4h-7.5c-0.3,0-0.5-0.2-0.5-0.5s0.2-0.5,0.5-0.5h7.5c0.3,0,0.5,0.2,0.5,0.5S157.3,47.4,157,47.4"/>
<path class="st1" d="M149.6,48.4c-0.8,0-1.5-0.7-1.5-1.5c0-0.8,0.7-1.5,1.5-1.5c0.8,0,1.5,0.7,1.5,1.5
	C151.1,47.7,150.4,48.4,149.6,48.4"/>
<path class="st1" d="M157,48.4c0.8,0,1.5-0.7,1.5-1.5c0-0.8-0.7-1.5-1.5-1.5c-0.8,0-1.5,0.7-1.5,1.5C155.4,47.7,156.1,48.4,157,48.4
	"/>
<path class="st1" d="M146.6,47.4h-7.5c-0.3,0-0.5-0.2-0.5-0.5s0.2-0.5,0.5-0.5h7.5c0.3,0,0.5,0.2,0.5,0.5S146.9,47.4,146.6,47.4"/>
<path class="st1" d="M139.2,48.4c-0.8,0-1.5-0.7-1.5-1.5c0-0.8,0.7-1.5,1.5-1.5c0.8,0,1.5,0.7,1.5,1.5
	C140.7,47.7,140,48.4,139.2,48.4"/>
<path class="st2" d="M146.6,48.4c0.8,0,1.5-0.7,1.5-1.5c0-0.8-0.7-1.5-1.5-1.5c-0.8,0-1.5,0.7-1.5,1.5
	C145.1,47.7,145.7,48.4,146.6,48.4"/>
<path class="st1" d="M148.3,24.8h-10.6c-0.3,0-0.5-0.2-0.5-0.5c0-0.3,0.2-0.5,0.5-0.5h10.6c0.3,0,0.5,0.2,0.5,0.5
	C148.8,24.6,148.6,24.8,148.3,24.8"/>
<path class="st1" d="M148.2,25.8c0.8,0,1.5-0.7,1.5-1.5c0-0.8-0.7-1.5-1.5-1.5c-0.8,0-1.5,0.7-1.5,1.5
	C146.7,25.1,147.4,25.8,148.2,25.8"/>
<path class="st1" d="M137.7,14.2c-0.3,0-0.5-0.2-0.5-0.5V5.2c0-0.3,0.2-0.5,0.5-0.5c0.3,0,0.5,0.2,0.5,0.5v8.5
	C138.2,14,138,14.2,137.7,14.2"/>
<path class="st1" d="M139.2,13.6c0,0.8-0.7,1.5-1.5,1.5c-0.8,0-1.5-0.7-1.5-1.5c0-0.8,0.7-1.5,1.5-1.5
	C138.5,12.1,139.2,12.8,139.2,13.6"/>
<path class="st1" d="M139.2,5.3c0-0.8-0.7-1.5-1.5-1.5c-0.8,0-1.5,0.7-1.5,1.5c0,0.8,0.7,1.5,1.5,1.5C138.5,6.8,139.2,6.1,139.2,5.3
	"/>
<g>
	<defs>
		<rect id="SVGID_7_" x="137.2" y="16" width="1" height="27.9"/>
	</defs>
	<clipPath id="SVGID_8_">
		<use xlink:href="#SVGID_7_"  style="overflow:visible;"/>
	</clipPath>
	<path class="st6" d="M137.7,43.9c-0.3,0-0.5-0.2-0.5-0.5V16.5c0-0.3,0.2-0.5,0.5-0.5c0.3,0,0.5,0.2,0.5,0.5v26.9
		C138.2,43.7,138,43.9,137.7,43.9"/>
</g>
<path class="st1" d="M139.2,43.3c0,0.8-0.7,1.5-1.5,1.5c-0.8,0-1.5-0.7-1.5-1.5c0-0.8,0.7-1.5,1.5-1.5
	C138.5,41.8,139.2,42.5,139.2,43.3"/>
<path class="st1" d="M139.2,16.6c0-0.8-0.7-1.5-1.5-1.5c-0.8,0-1.5,0.7-1.5,1.5c0,0.8,0.7,1.5,1.5,1.5
	C138.5,18.1,139.2,17.4,139.2,16.6"/>
<g>
	<defs>
		<rect id="SVGID_9_" x="182.1" y="1" width="23.8" height="11.7"/>
	</defs>
	<clipPath id="SVGID_10_">
		<use xlink:href="#SVGID_9_"  style="overflow:visible;"/>
	</clipPath>
	<path class="st7" d="M205.5,12.7c-0.3,0-0.5-0.2-0.5-0.5c-0.2-2-0.8-3.6-1.8-4.9c-1.1-1.5-2.6-2.5-4.1-3.3
		c-1.5-0.9-3.1-1.4-4.1-1.7c-1.1-0.3-1.8-0.4-1.9-0.4l-10.5,0c-0.3,0-0.5-0.2-0.5-0.5c0-0.3,0.2-0.5,0.5-0.5h10.6
		c0.1,0,0.9,0.1,2.1,0.4c1.1,0.3,2.7,0.8,4.4,1.8c1.6,0.9,3.2,2,4.4,3.6c1.1,1.5,1.8,3.3,2,5.4C206,12.5,205.8,12.7,205.5,12.7
		C205.5,12.7,205.5,12.7,205.5,12.7"/>
</g>
<path class="st1" d="M182.7,3c-0.8,0-1.5-0.7-1.5-1.5c0-0.8,0.7-1.5,1.5-1.5c0.8,0,1.5,0.7,1.5,1.5C184.2,2.3,183.5,3,182.7,3"/>
<path class="st1" d="M203.9,12.3c0.1,0.8,0.8,1.5,1.6,1.4c0.8-0.1,1.5-0.8,1.4-1.6c-0.1-0.8-0.8-1.5-1.6-1.4
	C204.5,10.7,203.9,11.4,203.9,12.3"/>
<path class="st1" d="M189.9,27.5c-0.3,0-0.5-0.2-0.5-0.5c0-0.3,0.2-0.5,0.5-0.5h3.3c0,0,0.7-0.1,1.8-0.4c1-0.3,2.6-0.8,4.1-1.7
	c1.5-0.9,3-1.9,4.1-3.3c1-1.3,1.6-3,1.8-4.9c0-0.3,0.3-0.5,0.5-0.5c0.3,0,0.5,0.3,0.5,0.5c-0.2,2.2-0.8,3.9-2,5.4
	c-1.2,1.6-2.8,2.7-4.4,3.6c-1.6,1-3.3,1.5-4.4,1.8c-1.2,0.3-2,0.4-2,0.4L189.9,27.5z"/>
<path class="st1" d="M189.9,28.5c-0.8,0-1.5-0.7-1.5-1.5c0-0.8,0.7-1.5,1.5-1.5c0.8,0,1.5,0.7,1.5,1.5
	C191.4,27.9,190.8,28.5,189.9,28.5"/>
<path class="st1" d="M206.9,16.5c0.1-0.8-0.6-1.5-1.4-1.6c-0.8-0.1-1.5,0.6-1.6,1.4c-0.1,0.8,0.6,1.5,1.4,1.6
	C206.1,17.9,206.9,17.3,206.9,16.5"/>
<path class="st1" d="M187,27.5h-4.4c-0.3,0-0.5-0.2-0.5-0.5c0-0.3,0.2-0.5,0.5-0.5h4.4c0.3,0,0.5,0.2,0.5,0.5
	C187.5,27.3,187.3,27.5,187,27.5"/>
<path class="st1" d="M182.7,28.5c-0.8,0-1.5-0.7-1.5-1.5c0-0.8,0.7-1.5,1.5-1.5c0.8,0,1.5,0.7,1.5,1.5
	C184.2,27.9,183.5,28.5,182.7,28.5"/>
<path class="st1" d="M186.9,28.5c0.8,0,1.5-0.7,1.5-1.5c0-0.8-0.7-1.5-1.5-1.5c-0.8,0-1.5,0.7-1.5,1.5
	C185.4,27.9,186.1,28.5,186.9,28.5"/>
<path class="st1" d="M206.8,46.1c-0.2,0-0.4-0.1-0.5-0.3l-7.9-16.9c-0.1-0.3,0-0.5,0.2-0.7c0.2-0.1,0.5,0,0.7,0.2l7.9,16.9
	c0.1,0.3,0,0.5-0.2,0.7C207,46,206.9,46.1,206.8,46.1"/>
<path class="st1" d="M197.6,29.4c-0.4-0.8,0-1.6,0.7-2c0.8-0.4,1.6,0,2,0.7c0.4,0.8,0,1.6-0.7,2C198.8,30.4,198,30.1,197.6,29.4"/>
<path class="st1" d="M205.4,46.1c0.4,0.8,1.2,1.1,2,0.7c0.8-0.4,1.1-1.2,0.7-2c-0.4-0.8-1.2-1.1-2-0.7
	C205.4,44.5,205.1,45.4,205.4,46.1"/>
<path class="st1" d="M179.2,8.2c-0.3,0-0.5-0.2-0.5-0.5V2.9c0-0.3,0.2-0.5,0.5-0.5c0.3,0,0.5,0.2,0.5,0.5v4.7
	C179.7,7.9,179.5,8.2,179.2,8.2"/>
<path class="st1" d="M180.7,7.6c0,0.8-0.7,1.5-1.5,1.5c-0.8,0-1.5-0.7-1.5-1.5c0-0.8,0.7-1.5,1.5-1.5C180,6.1,180.7,6.8,180.7,7.6"
	/>
<path class="st1" d="M180.7,3c0-0.8-0.7-1.5-1.5-1.5c-0.8,0-1.5,0.7-1.5,1.5c0,0.8,0.7,1.5,1.5,1.5C180,4.5,180.7,3.8,180.7,3"/>
<path class="st4" d="M179.2,45.9c-0.3,0-0.5-0.2-0.5-0.5V10.5c0-0.3,0.2-0.5,0.5-0.5c0.3,0,0.5,0.2,0.5,0.5v34.9
	C179.7,45.7,179.5,45.9,179.2,45.9"/>
<path class="st1" d="M180.7,45.4c0,0.8-0.7,1.5-1.5,1.5c-0.8,0-1.5-0.7-1.5-1.5c0-0.8,0.7-1.5,1.5-1.5
	C180,43.9,180.7,44.5,180.7,45.4"/>
<path class="st2" d="M180.7,10.6c0-0.8-0.7-1.5-1.5-1.5c-0.8,0-1.5,0.7-1.5,1.5c0,0.8,0.7,1.5,1.5,1.5
	C180,12.1,180.7,11.4,180.7,10.6"/>
<path class="st4" d="M227.6,18.7c-0.3,0-0.5-0.2-0.5-0.5V2.9c0-0.3,0.2-0.5,0.5-0.5c0.3,0,0.5,0.2,0.5,0.5v15.2
	C228.1,18.5,227.8,18.7,227.6,18.7"/>
<path class="st2" d="M229.1,18.1c0,0.8-0.7,1.5-1.5,1.5c-0.8,0-1.5-0.7-1.5-1.5c0-0.8,0.7-1.5,1.5-1.5
	C228.4,16.6,229.1,17.3,229.1,18.1"/>
<path class="st1" d="M229.1,3c0-0.8-0.7-1.5-1.5-1.5c-0.8,0-1.5,0.7-1.5,1.5c0,0.8,0.7,1.5,1.5,1.5C228.4,4.5,229.1,3.8,229.1,3"/>
<g>
	<defs>
		<rect id="SVGID_11_" x="227.1" y="20.5" width="1" height="25.4"/>
	</defs>
	<clipPath id="SVGID_12_">
		<use xlink:href="#SVGID_11_"  style="overflow:visible;"/>
	</clipPath>
	<path class="st8" d="M227.6,45.9c-0.3,0-0.5-0.2-0.5-0.5V21c0-0.3,0.2-0.5,0.5-0.5c0.3,0,0.5,0.2,0.5,0.5v24.4
		C228.1,45.7,227.8,45.9,227.6,45.9"/>
</g>
<path class="st1" d="M229.1,45.4c0,0.8-0.7,1.5-1.5,1.5c-0.8,0-1.5-0.7-1.5-1.5c0-0.8,0.7-1.5,1.5-1.5
	C228.4,43.9,229.1,44.5,229.1,45.4"/>
<path class="st1" d="M229.1,21.1c0-0.8-0.7-1.5-1.5-1.5c-0.8,0-1.5,0.7-1.5,1.5c0,0.8,0.7,1.5,1.5,1.5
	C228.4,22.6,229.1,21.9,229.1,21.1"/>
<g>
	<defs>
		<rect id="SVGID_13_" x="306.7" y="2.3" width="15.8" height="27.7"/>
	</defs>
	<clipPath id="SVGID_14_">
		<use xlink:href="#SVGID_13_"  style="overflow:visible;"/>
	</clipPath>
	<path class="st9" d="M322,30c-0.2,0-0.3-0.1-0.4-0.3L306.7,3c-0.1-0.2,0-0.5,0.2-0.7c0.2-0.1,0.5,0,0.7,0.2l14.8,26.7
		c0.1,0.2,0,0.5-0.2,0.7C322.1,29.9,322,30,322,30"/>
</g>
<path class="st1" d="M323.2,28.7c0.4,0.7,0.1,1.6-0.6,2c-0.7,0.4-1.6,0.1-2-0.6c-0.4-0.7-0.1-1.6,0.6-2
	C321.9,27.7,322.8,27.9,323.2,28.7"/>
<path class="st1" d="M308.5,2.1c-0.4-0.7-1.3-1-2-0.6c-0.7,0.4-1,1.3-0.6,2c0.4,0.7,1.3,1,2,0.6C308.7,3.7,308.9,2.8,308.5,2.1"/>
<path class="st1" d="M330.9,46.1c-0.2,0-0.3-0.1-0.4-0.3l-7.6-13.6c-0.1-0.2,0-0.5,0.2-0.7c0.2-0.1,0.5,0,0.7,0.2l7.6,13.6
	c0.1,0.2,0,0.5-0.2,0.7C331.1,46.1,331,46.1,330.9,46.1"/>
<path class="st1" d="M332.2,44.8c0.4,0.7,0.1,1.6-0.6,2c-0.7,0.4-1.6,0.1-2-0.6c-0.4-0.7-0.1-1.6,0.6-2
	C330.9,43.8,331.8,44.1,332.2,44.8"/>
<path class="st1" d="M324.7,31.3c-0.4-0.7-1.3-1-2-0.6c-0.7,0.4-1,1.3-0.6,2c0.4,0.7,1.3,1,2,0.6C324.8,32.9,325.1,32,324.7,31.3"/>
<path class="st1" d="M306.5,19.3c-0.3,0-0.5-0.2-0.5-0.5V7c0-0.3,0.2-0.5,0.5-0.5c0.3,0,0.5,0.2,0.5,0.5v11.8
	C307,19.1,306.7,19.3,306.5,19.3"/>
<path class="st1" d="M308,18.8c0,0.8-0.7,1.5-1.5,1.5c-0.8,0-1.5-0.7-1.5-1.5c0-0.8,0.7-1.5,1.5-1.5C307.3,17.3,308,17.9,308,18.8"
	/>
<path class="st1" d="M308,7.1c0-0.8-0.7-1.5-1.5-1.5c-0.8,0-1.5,0.7-1.5,1.5s0.7,1.5,1.5,1.5C307.3,8.6,308,7.9,308,7.1"/>
<path class="st1" d="M306.5,45.9c-0.3,0-0.5-0.2-0.5-0.5V21.7c0-0.3,0.2-0.5,0.5-0.5c0.3,0,0.5,0.2,0.5,0.5v23.7
	C307,45.7,306.7,45.9,306.5,45.9"/>
<path class="st1" d="M308,45.4c0,0.8-0.7,1.5-1.5,1.5c-0.8,0-1.5-0.7-1.5-1.5c0-0.8,0.7-1.5,1.5-1.5C307.3,43.9,308,44.5,308,45.4"
	/>
<path class="st1" d="M308,21.8c0-0.8-0.7-1.5-1.5-1.5c-0.8,0-1.5,0.7-1.5,1.5c0,0.8,0.7,1.5,1.5,1.5C307.3,23.3,308,22.6,308,21.8"
	/>
<path class="st4" d="M330.9,46c-0.3,0-0.5-0.2-0.5-0.5V2.9c0-0.3,0.2-0.5,0.5-0.5s0.5,0.2,0.5,0.5v42.6
	C331.4,45.8,331.2,46,330.9,46"/>
<path class="st2" d="M332.4,3c0-0.8-0.7-1.5-1.5-1.5c-0.8,0-1.5,0.7-1.5,1.5c0,0.8,0.7,1.5,1.5,1.5C331.8,4.5,332.4,3.8,332.4,3"/>
<path class="st1" d="M283.8,8.6c-0.1,0-0.3,0-0.4-0.1c-0.4-0.4-0.8-0.7-1.2-1.1c-0.2-0.2-0.2-0.5-0.1-0.7c0.2-0.2,0.5-0.2,0.7-0.1
	c0.4,0.4,0.8,0.7,1.2,1.1c0.2,0.2,0.2,0.5,0,0.7C284.1,8.6,284,8.6,283.8,8.6"/>
<path class="st1" d="M267.8,47.4c-6.2,0-12-2.4-16.4-6.8c-4.4-4.4-6.8-10.2-6.8-16.4c0-6.2,2.4-12,6.8-16.4
	c4.4-4.4,10.2-6.8,16.4-6.8c5.6,0,11,2,15.2,5.7c0.2,0.2,0.2,0.5,0.1,0.7c-0.2,0.2-0.5,0.2-0.7,0c-4-3.5-9.2-5.4-14.5-5.4
	c-5.9,0-11.5,2.3-15.7,6.5c-4.2,4.2-6.5,9.8-6.5,15.7c0,5.9,2.3,11.5,6.5,15.7c4.2,4.2,9.8,6.5,15.7,6.5c5.9,0,11.5-2.3,15.7-6.5
	c4.2-4.2,6.5-9.8,6.5-15.7c0-5-1.6-9.7-4.7-13.6c-0.2-0.2-0.1-0.5,0.1-0.7c0.2-0.2,0.5-0.1,0.7,0.1c3.2,4.1,4.9,9,4.9,14.2
	c0,6.2-2.4,12-6.8,16.4C279.8,44.9,274,47.4,267.8,47.4"/>
<path class="st2" d="M284.6,11.3c-0.5-0.6-0.4-1.6,0.2-2.1c0.6-0.5,1.6-0.4,2.1,0.2c0.5,0.6,0.4,1.6-0.2,2.1
	C286,12,285.1,11.9,284.6,11.3"/>
<path class="st1" d="M284.8,9.7c-0.1,0-0.3-0.1-0.4-0.2c-0.3-0.3-0.6-0.7-0.9-1c-0.2-0.2-0.2-0.5,0-0.7c0.2-0.2,0.5-0.2,0.7,0
	c0.3,0.3,0.7,0.7,1,1.1c0.2,0.2,0.2,0.5,0,0.7C285,9.6,284.9,9.7,284.8,9.7"/>
<path class="st1" d="M267.8,28c-1,0-2-0.4-2.7-1.1c-0.7-0.7-1.1-1.7-1.1-2.7c0-1,0.4-2,1.1-2.7c1.4-1.4,3.9-1.4,5.4,0
	c0.7,0.7,1.1,1.7,1.1,2.7c0,1-0.4,2-1.1,2.7C269.8,27.6,268.8,28,267.8,28 M267.8,21.4c-0.7,0-1.5,0.3-2,0.8c-0.5,0.5-0.8,1.2-0.8,2
	c0,0.7,0.3,1.4,0.8,2c1.1,1.1,2.9,1.1,4,0c0.5-0.5,0.8-1.2,0.8-2c0-0.7-0.3-1.5-0.8-2C269.2,21.7,268.5,21.4,267.8,21.4"/>
</svg>
