<?xml version="1.0" encoding="utf-8"?>
<!-- Generator: Adobe Illustrator 23.1.1, SVG Export Plug-In . SVG Version: 6.00 Build 0)  -->
<svg version="1.1" id="Layer_1" xmlns="http://www.w3.org/2000/svg" xmlns:xlink="http://www.w3.org/1999/xlink" x="0px" y="0px"
	 viewBox="0 0 105.5 16.2" style="enable-background:new 0 0 105.5 16.2;" xml:space="preserve">
<style type="text/css">
	.st0{fill:#315F7C;}
	.st1{fill:#FFC969;}
</style>
<g>
	<path class="st0" d="M33.7,16.2c-0.5,0-0.9-0.4-0.9-0.9V1.5c0-0.5,0.4-0.9,0.9-0.9c0.5,0,0.9,0.4,0.9,0.9v13.8
		C34.7,15.8,34.2,16.2,33.7,16.2"/>
	<path class="st0" d="M37.6,1.9h-7.9c-0.5,0-0.9-0.4-0.9-0.9c0-0.5,0.4-0.9,0.9-0.9h7.9c0.5,0,0.9,0.4,0.9,0.9
		C38.6,1.5,38.2,1.9,37.6,1.9"/>
	<path class="st0" d="M10.6,16.2c-0.4,0-0.8-0.3-0.9-0.6L6.5,5.9c-0.2-0.5,0.1-1,0.6-1.2c0.5-0.2,1,0.1,1.2,0.6l3.2,9.6
		c0.2,0.5-0.1,1-0.6,1.2C10.8,16.2,10.7,16.2,10.6,16.2"/>
	<path class="st0" d="M0.9,16.2c-0.1,0-0.2,0-0.3-0.1C0.1,16-0.1,15.4,0.1,15L4.9,0.8C5.1,0.3,5.6,0,6.1,0.2
		c0.5,0.2,0.8,0.7,0.6,1.2L1.8,15.6C1.7,16,1.3,16.2,0.9,16.2"/>
	<path class="st0" d="M9.5,15H2.1c-0.5,0-0.9-0.4-0.9-0.9c0-0.5,0.4-0.9,0.9-0.9h7.4c0.5,0,0.9,0.4,0.9,0.9C10.4,14.6,10,15,9.5,15"
		/>
	<path class="st0" d="M17,7c-0.2,0-0.4-0.1-0.6-0.2c-0.9-0.7-1.2-1.5-1.2-2.7c0-1.2,0.5-2.3,1.4-3C17.3,0.4,18.5,0,19.7,0
		c1,0,2.2,0.4,3.6,1.3c1,0.6,1.7,1.2,1.7,1.2c0.4,0.3,0.4,0.9,0.1,1.3c-0.3,0.4-0.9,0.4-1.3,0.1c0,0-0.6-0.5-1.4-1.1
		c-1-0.6-1.9-1-2.6-1c-0.8,0-1.5,0.2-2,0.6C17.3,2.9,17,3.4,17,4.1c0,0.7,0.2,1,0.5,1.3C18,5.7,18,6.3,17.7,6.7
		C17.5,6.9,17.2,7,17,7"/>
	<path class="st0" d="M20.8,16.2c-1,0-2.2-0.4-3.6-1.3c-1-0.6-1.7-1.2-1.7-1.2c-0.4-0.3-0.4-0.9-0.1-1.3c0.3-0.4,0.9-0.4,1.3-0.1
		c0,0,0.6,0.5,1.4,1.1c1,0.6,1.9,1,2.6,1c0.8,0,1.5-0.2,2-0.6c0.5-0.4,0.7-0.9,0.7-1.6c0-0.7-0.2-1-0.5-1.3
		c-0.3-0.2-0.8-0.5-1.4-0.7c-0.5-0.2-1.1-0.5-1.7-0.8C19.4,9,19.2,8.5,19.5,8c0.3-0.5,0.8-0.6,1.3-0.4c0.5,0.3,1.1,0.6,1.6,0.8
		c0.7,0.3,1.3,0.6,1.8,1c0.9,0.7,1.2,1.5,1.2,2.7c0,1.2-0.5,2.3-1.4,3C23.1,15.8,22,16.2,20.8,16.2"/>
	<path class="st0" d="M50.5,1.9h-6.6c-0.5,0-0.9-0.4-0.9-0.9C43,0.4,43.4,0,43.9,0h6.6c0.5,0,0.9,0.4,0.9,0.9
		C51.4,1.5,51,1.9,50.5,1.9"/>
	<path class="st0" d="M50.5,16.2h-6.6c-0.5,0-0.9-0.4-0.9-0.9c0-0.5,0.4-0.9,0.9-0.9h6.6c0.5,0,0.9,0.4,0.9,0.9
		C51.4,15.8,51,16.2,50.5,16.2"/>
	<path class="st0" d="M47.7,9.1h-3.8c-0.5,0-0.9-0.4-0.9-0.9c0-0.5,0.4-0.9,0.9-0.9h3.8c0.5,0,0.9,0.4,0.9,0.9
		C48.7,8.7,48.3,9.1,47.7,9.1"/>
	<path class="st0" d="M43.9,16.2c-0.5,0-0.9-0.4-0.9-0.9V0.9C43,0.4,43.4,0,43.9,0c0.5,0,0.9,0.4,0.9,0.9v14.3
		C44.9,15.8,44.4,16.2,43.9,16.2"/>
	<path class="st0" d="M65.3,5.7c-0.5,0-0.9-0.4-0.9-0.9c0-1.4-0.6-1.9-1.5-2.4c-0.7-0.4-1.4-0.5-1.5-0.5h-4c-0.5,0-0.9-0.4-0.9-0.9
		c0-0.5,0.4-0.9,0.9-0.9h4.1c0,0,0.1,0,0.1,0c0.1,0,1.2,0.1,2.3,0.8c0.8,0.5,2.4,1.4,2.4,4C66.3,5.3,65.9,5.7,65.3,5.7"/>
	<path class="st0" d="M61.4,9.9h-3.8c-0.5,0-0.9-0.4-0.9-0.9c0-0.5,0.4-0.9,0.9-0.9h3.7c0.2,0,0.9-0.1,1.5-0.5
		c0.9-0.5,1.5-1,1.5-2.4c0-0.5,0.4-0.9,0.9-0.9c0.5,0,0.9,0.4,0.9,0.9c0,2.6-1.6,3.5-2.4,4C62.7,9.8,61.6,9.9,61.4,9.9
		C61.5,9.9,61.5,9.9,61.4,9.9"/>
	<path class="st0" d="M65.9,16.2c-0.4,0-0.7-0.2-0.9-0.5l-2.9-6.2c-0.2-0.5,0-1,0.5-1.3c0.5-0.2,1,0,1.3,0.5l2.9,6.2
		c0.2,0.5,0,1-0.5,1.3C66.2,16.2,66.1,16.2,65.9,16.2"/>
	<path class="st0" d="M57,16.2c-0.5,0-0.9-0.4-0.9-0.9V0.9C56.1,0.4,56.5,0,57,0C57.5,0,58,0.4,58,0.9v14.3
		C58,15.8,57.5,16.2,57,16.2"/>
	<path class="st0" d="M72.3,16.2c-0.5,0-0.9-0.4-0.9-0.9V0.9c0-0.5,0.4-0.9,0.9-0.9c0.5,0,0.9,0.4,0.9,0.9v14.3
		C73.2,15.8,72.8,16.2,72.3,16.2"/>
	<path class="st0" d="M104.6,16.2c-0.3,0-0.7-0.2-0.8-0.5L95.8,1.4c-0.3-0.5-0.1-1,0.4-1.3c0.5-0.3,1-0.1,1.3,0.4l7.9,14.3
		c0.3,0.5,0.1,1-0.4,1.3C104.9,16.2,104.8,16.2,104.6,16.2"/>
	<path class="st0" d="M96.6,16.2c-0.5,0-0.9-0.4-0.9-0.9V5.9C95.6,5.4,96,5,96.6,5c0.5,0,0.9,0.4,0.9,0.9v9.3
		C97.5,15.8,97.1,16.2,96.6,16.2"/>
	<path class="st0" d="M104.6,16.2c-0.5,0-0.9-0.4-0.9-0.9V1.1c0-0.5,0.4-0.9,0.9-0.9c0.5,0,0.9,0.4,0.9,0.9v14.1
		C105.5,15.8,105.1,16.2,104.6,16.2"/>
	<path class="st1" d="M85.3,6.1c-1.1,0-2,0.9-2,2c0,1.1,0.9,2,2,2c1.1,0,2-0.9,2-2C87.3,7,86.4,6.1,85.3,6.1"/>
	<path class="st0" d="M92.8,4.9c-0.3,0.6-0.9,1-1.6,1.1c0.2,0.7,0.4,1.4,0.4,2.1c0,3.4-2.8,6.2-6.2,6.2c-3.4,0-6.2-2.8-6.2-6.2
		s2.8-6.2,6.2-6.2c1.5,0,2.8,0.5,3.9,1.4c0.3-0.6,0.8-1.1,1.5-1.2C89.3,0.8,87.4,0,85.3,0c-4.5,0-8.1,3.6-8.1,8.1s3.6,8.1,8.1,8.1
		c4.5,0,8.1-3.6,8.1-8.1C93.4,7,93.2,5.9,92.8,4.9"/>
	<path class="st0" d="M90.3,1.1c-1.1,0-2,0.9-2,2c0,1.1,0.9,2,2,2c1.1,0,2-0.9,2-2C92.3,2,91.4,1.1,90.3,1.1"/>
</g>
</svg>
